<?xml version="1.0" encoding="UTF-8"?>
<svg id="Layer_2" data-name="Layer 2" xmlns="http://www.w3.org/2000/svg" viewBox="0 0 654.99 50.04">
  <defs>
    <style>
      .cls-1 {
        fill: #aa001c;
      }

      .cls-1, .cls-2 {
        stroke: #f2f2f2;
        stroke-miterlimit: 10;
      }

      .cls-2 {
        fill: #071d5b;
      }
    </style>
  </defs>
  <g id="Layer_1-2" data-name="Layer 1">
    <g id="Textplate">
      <g id="Word_Mark" data-name="Word Mark">
        <path class="cls-2" d="M61.63,30.96c-.07,6.98-.29,9.36-1.3,11.52-1.87,4.1-5.76,6.05-13.25,6.55-2.95.29-8.71.36-18.29.36-13.83,0-18.29-.65-22.18-3.17C1.87,43.2.5,38.16.5,23.9.5,11.23,1.94,6.69,6.98,3.81,11.3,1.29,15.91.64,29.37.64c17.93,0,21.82.36,25.92,2.38,3.89,1.94,5.69,6.19,5.69,13.25v1.58h-13.97c-.29-5.26-1.37-5.69-14.04-5.69-11.95,0-14.11.29-15.91,1.87-1.73,1.58-2.09,3.53-2.09,11.31,0,11.52,1.08,12.38,15.12,12.38,10.87,0,12.46-.07,14.47-.94,2.09-.86,2.88-2.38,2.88-5.83h14.19Z"/>
        <path class="cls-2" d="M119.18,1.22c7.42,1.37,11.02,5.18,12.02,12.89.29,1.94.43,5.83.43,11.67,0,11.59-1.22,16.27-5.33,19.66-2.88,2.45-6.91,3.6-13.9,3.89-2.59.14-9,.22-13.68.22-11.45,0-17.28-.22-20.16-.79-5.33-.94-8.42-2.95-10.23-6.48-1.87-3.53-2.3-7.06-2.3-17.57,0-8.06.14-10.08,1.01-13.32,1.37-5.11,4.18-7.85,9.58-9.43,4.03-1.15,8.42-1.44,21.1-1.44,13.83,0,18.07.14,21.46.72ZM83.32,13.97c-1.94,1.51-2.52,3.89-2.52,10.8s.58,9.65,2.38,11.16c1.94,1.58,4.32,1.87,15.34,1.87,12.6,0,15.19-.43,16.85-2.74,1.37-1.73,1.73-4.18,1.73-10.58,0-12.1-.22-12.24-18.22-12.24-10.73,0-13.68.36-15.55,1.73Z"/>
        <path class="cls-2" d="M136.95,1h23.26l29.09,36.51-.36-36.51h13.83v48.03h-23.47l-28.66-36.15.36,36.15h-14.04V1Z"/>
        <path class="cls-2" d="M208.01,1h23.26l29.09,36.51-.36-36.51h13.83v48.03h-23.47l-28.66-36.15.36,36.15h-14.04V1Z"/>
        <path class="cls-1" d="M331.44,11.9h-52.36V1h52.36v10.9ZM331.68,49.03h-52.36v-10.9h52.36v10.9ZM331.68,30.47h-52.36v-10.9h52.36v10.9Z"/>
        <path class="cls-2" d="M398.37,30.96c-.07,6.98-.29,9.36-1.3,11.52-1.87,4.1-5.76,6.05-13.25,6.55-2.95.29-8.71.36-18.29.36-13.83,0-18.29-.65-22.18-3.17-4.75-3.02-6.12-8.06-6.12-22.32,0-12.67,1.44-17.21,6.48-20.09,4.32-2.52,8.93-3.17,22.39-3.17,17.93,0,21.82.36,25.92,2.38,3.89,1.94,5.69,6.19,5.69,13.25v1.58h-13.97c-.29-5.26-1.37-5.69-14.04-5.69-11.95,0-14.11.29-15.91,1.87-1.73,1.58-2.09,3.53-2.09,11.31,0,11.52,1.08,12.38,15.12,12.38,10.87,0,12.46-.07,14.47-.94,2.09-.86,2.88-2.38,2.88-5.83h14.19Z"/>
        <path class="cls-2" d="M423.97,12.89h-21.39V1h57.39v11.88h-21.39v36.15h-14.62V12.89Z"/>
        <path class="cls-1" d="M518.39,12.15h-53.21V1.26h53.21v10.9ZM518.65,49.28h-53.21v-10.9h53.21v10.9ZM518.39,30.47h-53.21v-10.9h53.21v10.9Z"/>
        <path class="cls-2" d="M523.37,1h41.48c10.15,0,14.91,1.15,18.22,4.46,2.66,2.59,3.74,5.62,4.25,11.74.14,2.23.29,5.54.29,7.85,0,4.32-.29,9.29-.72,12.02-.79,5.76-4.83,10.23-10.08,11.23-2.74.58-4.9.72-10.01.72h-43.42V1ZM562.47,37.58c3.96,0,4.25,0,5.98-.58,3.53-1.08,4.46-3.6,4.46-11.88,0-10.08-1.73-12.17-10.15-12.17h-24.77v24.63h24.48Z"/>
        <path class="cls-2" d="M607.53,1v23.76c0,5.26,0,5.4.22,6.7.72,5.4,3.1,6.48,14.04,6.48s13.97-.29,15.77-1.66c1.44-1.08,2.16-3.17,2.23-6.84q.07-1.08.07-6.41V1h14.62v25.2c.14,11.88-.86,15.41-5.11,19.23-3.46,2.66-7.78,3.82-14.04,3.89-2.23.07-3.53.07-6.41.07l-5.47.07c-13.54-.07-16.2-.22-19.73-1.15-8.71-2.66-11.02-7.2-10.8-21.46V1h14.62Z"/>
      </g>
    </g>
  </g>
</svg>